<mxfile host="Electron" modified="2023-12-19T13:10:00.543Z" agent="Mozilla/5.0 (Macintosh; Intel Mac OS X 10_15_7) AppleWebKit/537.36 (KHTML, like Gecko) draw.io/22.1.11 Chrome/114.0.5735.289 Electron/25.9.8 Safari/537.36" etag="94hS6aVf2ElqZvboeDZg" version="22.1.11" type="device">
  <diagram name="Page-1" id="EuUw42VtQpdWw6-Kvyys">
    <mxGraphModel dx="1554" dy="2226" grid="1" gridSize="10" guides="1" tooltips="1" connect="1" arrows="1" fold="1" page="1" pageScale="1" pageWidth="850" pageHeight="1100" math="0" shadow="0">
      <root>
        <mxCell id="0" />
        <mxCell id="1" parent="0" />
        <mxCell id="bJIkvpA4lVAIt0Bt3T95-14" style="edgeStyle=orthogonalEdgeStyle;rounded=0;orthogonalLoop=1;jettySize=auto;html=1;exitX=0.75;exitY=0;exitDx=0;exitDy=0;entryX=0;entryY=0.5;entryDx=0;entryDy=0;strokeWidth=2;endArrow=none;endFill=0;startArrow=block;startFill=1;" parent="1" source="H1L8KWAx3ZCyEtPVx_r6-2" target="H1L8KWAx3ZCyEtPVx_r6-6" edge="1">
          <mxGeometry relative="1" as="geometry" />
        </mxCell>
        <mxCell id="H1L8KWAx3ZCyEtPVx_r6-2" value="View" style="swimlane;childLayout=stackLayout;horizontal=1;startSize=50;horizontalStack=0;rounded=1;fontSize=14;fontStyle=0;strokeWidth=2;resizeParent=0;resizeLast=1;shadow=0;dashed=0;align=center;arcSize=4;whiteSpace=wrap;html=1;" parent="1" vertex="1">
          <mxGeometry x="70" y="70" width="160" height="110" as="geometry" />
        </mxCell>
        <mxCell id="H1L8KWAx3ZCyEtPVx_r6-3" value="+init&lt;br&gt;+onMessageNotification&lt;br&gt;+onActionNotification" style="align=left;strokeColor=none;fillColor=none;spacingLeft=4;fontSize=12;verticalAlign=top;resizable=0;rotatable=0;part=1;html=1;" parent="H1L8KWAx3ZCyEtPVx_r6-2" vertex="1">
          <mxGeometry y="50" width="160" height="60" as="geometry" />
        </mxCell>
        <mxCell id="H1L8KWAx3ZCyEtPVx_r6-15" style="edgeStyle=orthogonalEdgeStyle;rounded=0;orthogonalLoop=1;jettySize=auto;html=1;exitX=0.5;exitY=1;exitDx=0;exitDy=0;" parent="H1L8KWAx3ZCyEtPVx_r6-2" source="H1L8KWAx3ZCyEtPVx_r6-3" target="H1L8KWAx3ZCyEtPVx_r6-3" edge="1">
          <mxGeometry relative="1" as="geometry" />
        </mxCell>
        <mxCell id="H1L8KWAx3ZCyEtPVx_r6-10" value="ViewObserver &amp;lt;I&amp;gt;" style="swimlane;childLayout=stackLayout;horizontal=1;startSize=50;horizontalStack=0;rounded=1;fontSize=14;fontStyle=0;strokeWidth=2;resizeParent=0;resizeLast=1;shadow=0;dashed=0;align=center;arcSize=4;whiteSpace=wrap;html=1;" parent="1" vertex="1">
          <mxGeometry x="310" y="70" width="160" height="100" as="geometry" />
        </mxCell>
        <mxCell id="H1L8KWAx3ZCyEtPVx_r6-11" value="+onMessageNotification&lt;br&gt;+onActionNotification" style="align=left;strokeColor=none;fillColor=none;spacingLeft=4;fontSize=12;verticalAlign=top;resizable=0;rotatable=0;part=1;html=1;" parent="H1L8KWAx3ZCyEtPVx_r6-10" vertex="1">
          <mxGeometry y="50" width="160" height="50" as="geometry" />
        </mxCell>
        <mxCell id="H1L8KWAx3ZCyEtPVx_r6-41" style="rounded=0;orthogonalLoop=1;jettySize=auto;html=1;exitX=1;exitY=0;exitDx=0;exitDy=0;strokeWidth=2;endArrow=block;endFill=1;startArrow=none;startFill=0;" parent="1" source="H1L8KWAx3ZCyEtPVx_r6-9" edge="1">
          <mxGeometry relative="1" as="geometry">
            <mxPoint x="800" y="120" as="targetPoint" />
          </mxGeometry>
        </mxCell>
        <mxCell id="H1L8KWAx3ZCyEtPVx_r6-63" style="rounded=0;orthogonalLoop=1;jettySize=auto;html=1;exitX=1;exitY=0;exitDx=0;exitDy=0;entryX=0;entryY=0.25;entryDx=0;entryDy=0;endArrow=block;endFill=0;strokeWidth=2;dashed=1;" parent="1" source="H1L8KWAx3ZCyEtPVx_r6-8" target="H1L8KWAx3ZCyEtPVx_r6-62" edge="1">
          <mxGeometry relative="1" as="geometry" />
        </mxCell>
        <mxCell id="bJIkvpA4lVAIt0Bt3T95-13" style="edgeStyle=orthogonalEdgeStyle;rounded=0;orthogonalLoop=1;jettySize=auto;html=1;exitX=0.25;exitY=0;exitDx=0;exitDy=0;entryX=1;entryY=0.5;entryDx=0;entryDy=0;endArrow=none;endFill=0;strokeWidth=2;startArrow=block;startFill=1;" parent="1" source="H1L8KWAx3ZCyEtPVx_r6-8" target="H1L8KWAx3ZCyEtPVx_r6-6" edge="1">
          <mxGeometry relative="1" as="geometry">
            <mxPoint x="490" y="-50" as="targetPoint" />
            <Array as="points">
              <mxPoint x="590" y="-40" />
            </Array>
          </mxGeometry>
        </mxCell>
        <mxCell id="H1L8KWAx3ZCyEtPVx_r6-8" value="Model" style="swimlane;childLayout=stackLayout;horizontal=1;startSize=50;horizontalStack=0;rounded=1;fontSize=14;fontStyle=0;strokeWidth=2;resizeParent=0;resizeLast=1;shadow=0;dashed=0;align=center;arcSize=4;whiteSpace=wrap;html=1;" parent="1" vertex="1">
          <mxGeometry x="550" y="70" width="160" height="450" as="geometry" />
        </mxCell>
        <mxCell id="H1L8KWAx3ZCyEtPVx_r6-9" value="+start&lt;br&gt;+registerObserver&lt;br&gt;+notifyObserverOfMessage&lt;br&gt;+notifyObserverOfAction&lt;br&gt;+addPlayer&lt;br&gt;+movePlayer&lt;br&gt;+playerEat&lt;br&gt;+addEnemy&lt;br&gt;+addEnemy*&lt;br&gt;+moveEnemy&lt;br&gt;+enemyEat&lt;br&gt;+disposeEnemies&lt;br&gt;+increaseSpeed&lt;br&gt;+decreaseSpeed&lt;br&gt;+resetSpeed&lt;br&gt;+pause&lt;br&gt;+unpause&lt;br&gt;+eatenMessage&lt;br&gt;+incrementEaten&lt;br&gt;+resetEaten&lt;br&gt;+gameOver&lt;br&gt;+quit&lt;br&gt;+reset&lt;br&gt;+getGameSize&lt;br&gt;+getGameSped&lt;br&gt;+getGamePaused&lt;br&gt;+startTimer" style="align=left;strokeColor=none;fillColor=none;spacingLeft=4;fontSize=12;verticalAlign=top;resizable=0;rotatable=0;part=1;html=1;" parent="H1L8KWAx3ZCyEtPVx_r6-8" vertex="1">
          <mxGeometry y="50" width="160" height="400" as="geometry" />
        </mxCell>
        <mxCell id="H1L8KWAx3ZCyEtPVx_r6-6" value="UserController" style="swimlane;childLayout=stackLayout;horizontal=1;startSize=50;horizontalStack=0;rounded=1;fontSize=14;fontStyle=0;strokeWidth=2;resizeParent=0;resizeLast=1;shadow=0;dashed=0;align=center;arcSize=4;whiteSpace=wrap;html=1;" parent="1" vertex="1">
          <mxGeometry x="310" y="-80" width="160" height="80" as="geometry" />
        </mxCell>
        <mxCell id="H1L8KWAx3ZCyEtPVx_r6-7" value="+eventDispatched" style="align=left;strokeColor=none;fillColor=none;spacingLeft=4;fontSize=12;verticalAlign=top;resizable=0;rotatable=0;part=1;html=1;" parent="H1L8KWAx3ZCyEtPVx_r6-6" vertex="1">
          <mxGeometry y="50" width="160" height="30" as="geometry" />
        </mxCell>
        <mxCell id="bJIkvpA4lVAIt0Bt3T95-4" style="edgeStyle=orthogonalEdgeStyle;rounded=0;orthogonalLoop=1;jettySize=auto;html=1;entryX=0.5;entryY=1;entryDx=0;entryDy=0;strokeWidth=2;endArrow=block;endFill=1;" parent="1" source="H1L8KWAx3ZCyEtPVx_r6-20" target="H1L8KWAx3ZCyEtPVx_r6-62" edge="1">
          <mxGeometry relative="1" as="geometry" />
        </mxCell>
        <mxCell id="H1L8KWAx3ZCyEtPVx_r6-20" value="Unit" style="swimlane;childLayout=stackLayout;horizontal=1;startSize=50;horizontalStack=0;rounded=1;fontSize=14;fontStyle=0;strokeWidth=2;resizeParent=0;resizeLast=1;shadow=0;dashed=0;align=center;arcSize=4;whiteSpace=wrap;html=1;" parent="1" vertex="1">
          <mxGeometry x="800" y="70" width="160" height="80" as="geometry" />
        </mxCell>
        <mxCell id="H1L8KWAx3ZCyEtPVx_r6-39" style="rounded=0;orthogonalLoop=1;jettySize=auto;html=1;entryX=1;entryY=0.75;entryDx=0;entryDy=0;strokeWidth=2;endArrow=block;endFill=0;exitX=0;exitY=0.5;exitDx=0;exitDy=0;" parent="1" source="H1L8KWAx3ZCyEtPVx_r6-32" target="H1L8KWAx3ZCyEtPVx_r6-20" edge="1">
          <mxGeometry relative="1" as="geometry">
            <mxPoint x="924" y="20" as="targetPoint" />
          </mxGeometry>
        </mxCell>
        <mxCell id="H1L8KWAx3ZCyEtPVx_r6-32" value="Player" style="swimlane;childLayout=stackLayout;horizontal=1;startSize=50;horizontalStack=0;rounded=1;fontSize=14;fontStyle=0;strokeWidth=2;resizeParent=0;resizeLast=1;shadow=0;dashed=0;align=center;arcSize=4;whiteSpace=wrap;html=1;" parent="1" vertex="1">
          <mxGeometry x="1060" y="140" width="160" height="80" as="geometry" />
        </mxCell>
        <mxCell id="H1L8KWAx3ZCyEtPVx_r6-33" value="+move" style="align=left;strokeColor=none;fillColor=none;spacingLeft=4;fontSize=12;verticalAlign=top;resizable=0;rotatable=0;part=1;html=1;" parent="H1L8KWAx3ZCyEtPVx_r6-32" vertex="1">
          <mxGeometry y="50" width="160" height="30" as="geometry" />
        </mxCell>
        <mxCell id="H1L8KWAx3ZCyEtPVx_r6-40" style="rounded=0;orthogonalLoop=1;jettySize=auto;html=1;entryX=1;entryY=0.25;entryDx=0;entryDy=0;endArrow=block;endFill=0;strokeWidth=2;exitX=0;exitY=0.25;exitDx=0;exitDy=0;" parent="1" source="H1L8KWAx3ZCyEtPVx_r6-35" target="H1L8KWAx3ZCyEtPVx_r6-20" edge="1">
          <mxGeometry relative="1" as="geometry">
            <mxPoint x="920" y="20" as="targetPoint" />
          </mxGeometry>
        </mxCell>
        <mxCell id="bJIkvpA4lVAIt0Bt3T95-3" style="edgeStyle=orthogonalEdgeStyle;rounded=0;orthogonalLoop=1;jettySize=auto;html=1;entryX=0.5;entryY=1;entryDx=0;entryDy=0;entryPerimeter=0;endArrow=block;endFill=0;strokeWidth=2;dashed=1;exitX=0.5;exitY=0;exitDx=0;exitDy=0;" parent="1" source="H1L8KWAx3ZCyEtPVx_r6-34" target="H1L8KWAx3ZCyEtPVx_r6-44" edge="1">
          <mxGeometry relative="1" as="geometry" />
        </mxCell>
        <mxCell id="H1L8KWAx3ZCyEtPVx_r6-34" value="Enemy" style="swimlane;childLayout=stackLayout;horizontal=1;startSize=50;horizontalStack=0;rounded=1;fontSize=14;fontStyle=0;strokeWidth=2;resizeParent=0;resizeLast=1;shadow=0;dashed=0;align=center;arcSize=4;whiteSpace=wrap;html=1;" parent="1" vertex="1">
          <mxGeometry x="1060" y="-30" width="160" height="130" as="geometry" />
        </mxCell>
        <mxCell id="H1L8KWAx3ZCyEtPVx_r6-35" value="+move&lt;br&gt;+run&lt;br&gt;+sleep&lt;br&gt;+getRandomColor&lt;br&gt;+getRandomName" style="align=left;strokeColor=none;fillColor=none;spacingLeft=4;fontSize=12;verticalAlign=top;resizable=0;rotatable=0;part=1;html=1;" parent="H1L8KWAx3ZCyEtPVx_r6-34" vertex="1">
          <mxGeometry y="50" width="160" height="80" as="geometry" />
        </mxCell>
        <mxCell id="H1L8KWAx3ZCyEtPVx_r6-37" value="FrenzyLauncher" style="swimlane;childLayout=stackLayout;horizontal=1;startSize=50;horizontalStack=0;rounded=1;fontSize=14;fontStyle=0;strokeWidth=2;resizeParent=0;resizeLast=1;shadow=0;dashed=0;align=center;arcSize=4;whiteSpace=wrap;html=1;" parent="1" vertex="1">
          <mxGeometry x="310" y="-250" width="160" height="80" as="geometry" />
        </mxCell>
        <mxCell id="H1L8KWAx3ZCyEtPVx_r6-38" value="+main" style="align=left;strokeColor=none;fillColor=none;spacingLeft=4;fontSize=12;verticalAlign=top;resizable=0;rotatable=0;part=1;html=1;" parent="H1L8KWAx3ZCyEtPVx_r6-37" vertex="1">
          <mxGeometry y="50" width="160" height="30" as="geometry" />
        </mxCell>
        <mxCell id="H1L8KWAx3ZCyEtPVx_r6-44" value="Runnable" style="strokeWidth=2;html=1;shape=mxgraph.flowchart.start_2;whiteSpace=wrap;" parent="1" vertex="1">
          <mxGeometry x="1120" y="-140" width="40" height="40" as="geometry" />
        </mxCell>
        <mxCell id="H1L8KWAx3ZCyEtPVx_r6-50" value="&amp;lt;&amp;lt;global&amp;gt;&amp;gt;&lt;br&gt;Constants" style="swimlane;childLayout=stackLayout;horizontal=1;startSize=50;horizontalStack=0;rounded=1;fontSize=14;fontStyle=0;strokeWidth=2;resizeParent=0;resizeLast=1;shadow=0;dashed=0;align=center;arcSize=4;whiteSpace=wrap;html=1;" parent="1" vertex="1">
          <mxGeometry x="70" y="-250" width="160" height="80" as="geometry" />
        </mxCell>
        <mxCell id="H1L8KWAx3ZCyEtPVx_r6-52" style="edgeStyle=orthogonalEdgeStyle;rounded=0;orthogonalLoop=1;jettySize=auto;html=1;exitX=0.5;exitY=1;exitDx=0;exitDy=0;" parent="H1L8KWAx3ZCyEtPVx_r6-50" edge="1">
          <mxGeometry relative="1" as="geometry">
            <mxPoint x="80" y="80" as="sourcePoint" />
            <mxPoint x="80" y="80" as="targetPoint" />
          </mxGeometry>
        </mxCell>
        <mxCell id="H1L8KWAx3ZCyEtPVx_r6-59" style="edgeStyle=orthogonalEdgeStyle;rounded=0;orthogonalLoop=1;jettySize=auto;html=1;exitX=0.5;exitY=1;exitDx=0;exitDy=0;exitPerimeter=0;entryX=0.5;entryY=0;entryDx=0;entryDy=0;strokeWidth=2;endArrow=block;endFill=1;" parent="1" source="H1L8KWAx3ZCyEtPVx_r6-58" target="H1L8KWAx3ZCyEtPVx_r6-37" edge="1">
          <mxGeometry relative="1" as="geometry" />
        </mxCell>
        <mxCell id="H1L8KWAx3ZCyEtPVx_r6-58" value="" style="strokeWidth=2;html=1;shape=mxgraph.flowchart.start_2;whiteSpace=wrap;gradientColor=none;fillColor=#000000;" parent="1" vertex="1">
          <mxGeometry x="370" y="-370" width="40" height="40" as="geometry" />
        </mxCell>
        <mxCell id="H1L8KWAx3ZCyEtPVx_r6-61" value="GameModelMediator &amp;lt;I&amp;gt;" style="swimlane;childLayout=stackLayout;horizontal=1;startSize=50;horizontalStack=0;rounded=1;fontSize=14;fontStyle=0;strokeWidth=2;resizeParent=0;resizeLast=1;shadow=0;dashed=0;align=center;arcSize=4;whiteSpace=wrap;html=1;" parent="1" vertex="1">
          <mxGeometry x="790" y="-140" width="180" height="130" as="geometry" />
        </mxCell>
        <mxCell id="H1L8KWAx3ZCyEtPVx_r6-62" value="+moveEnemy&lt;br&gt;+getGameSize&lt;br&gt;+getGameSpeed&lt;br&gt;+getGamePaused" style="align=left;strokeColor=none;fillColor=none;spacingLeft=4;fontSize=12;verticalAlign=top;resizable=0;rotatable=0;part=1;html=1;" parent="H1L8KWAx3ZCyEtPVx_r6-61" vertex="1">
          <mxGeometry y="50" width="180" height="80" as="geometry" />
        </mxCell>
        <mxCell id="bJIkvpA4lVAIt0Bt3T95-8" style="edgeStyle=orthogonalEdgeStyle;rounded=0;orthogonalLoop=1;jettySize=auto;html=1;entryX=0.75;entryY=0;entryDx=0;entryDy=0;strokeWidth=2;endArrow=block;endFill=1;exitX=0.75;exitY=1;exitDx=0;exitDy=0;" parent="1" source="H1L8KWAx3ZCyEtPVx_r6-38" target="H1L8KWAx3ZCyEtPVx_r6-8" edge="1">
          <mxGeometry relative="1" as="geometry">
            <Array as="points">
              <mxPoint x="430" y="-130" />
              <mxPoint x="670" y="-130" />
            </Array>
          </mxGeometry>
        </mxCell>
        <mxCell id="bJIkvpA4lVAIt0Bt3T95-10" style="edgeStyle=orthogonalEdgeStyle;rounded=0;orthogonalLoop=1;jettySize=auto;html=1;entryX=0.5;entryY=0;entryDx=0;entryDy=0;strokeWidth=2;endArrow=block;endFill=1;" parent="1" source="H1L8KWAx3ZCyEtPVx_r6-38" target="H1L8KWAx3ZCyEtPVx_r6-6" edge="1">
          <mxGeometry relative="1" as="geometry" />
        </mxCell>
        <mxCell id="bJIkvpA4lVAIt0Bt3T95-11" style="edgeStyle=orthogonalEdgeStyle;rounded=0;orthogonalLoop=1;jettySize=auto;html=1;exitX=0.25;exitY=1;exitDx=0;exitDy=0;entryX=0.25;entryY=0;entryDx=0;entryDy=0;strokeWidth=2;endArrow=block;endFill=1;" parent="1" source="H1L8KWAx3ZCyEtPVx_r6-38" target="H1L8KWAx3ZCyEtPVx_r6-2" edge="1">
          <mxGeometry relative="1" as="geometry">
            <Array as="points">
              <mxPoint x="350" y="-130" />
              <mxPoint x="110" y="-130" />
            </Array>
          </mxGeometry>
        </mxCell>
        <mxCell id="bJIkvpA4lVAIt0Bt3T95-15" style="edgeStyle=orthogonalEdgeStyle;rounded=0;orthogonalLoop=1;jettySize=auto;html=1;exitX=0;exitY=0;exitDx=0;exitDy=0;entryX=1;entryY=0;entryDx=0;entryDy=0;strokeWidth=2;endArrow=block;endFill=1;" parent="1" source="H1L8KWAx3ZCyEtPVx_r6-9" target="H1L8KWAx3ZCyEtPVx_r6-11" edge="1">
          <mxGeometry relative="1" as="geometry">
            <Array as="points">
              <mxPoint x="510" y="120" />
              <mxPoint x="510" y="120" />
            </Array>
          </mxGeometry>
        </mxCell>
        <mxCell id="bJIkvpA4lVAIt0Bt3T95-16" style="edgeStyle=orthogonalEdgeStyle;rounded=0;orthogonalLoop=1;jettySize=auto;html=1;exitX=1;exitY=0;exitDx=0;exitDy=0;entryX=0;entryY=0;entryDx=0;entryDy=0;strokeWidth=2;dashed=1;endArrow=block;endFill=0;" parent="1" source="H1L8KWAx3ZCyEtPVx_r6-3" target="H1L8KWAx3ZCyEtPVx_r6-11" edge="1">
          <mxGeometry relative="1" as="geometry">
            <Array as="points">
              <mxPoint x="250" y="120" />
              <mxPoint x="250" y="120" />
            </Array>
          </mxGeometry>
        </mxCell>
      </root>
    </mxGraphModel>
  </diagram>
</mxfile>
